<svg width="21" height="20" viewBox="0 0 21 20" fill="none" xmlns="http://www.w3.org/2000/svg">
<path d="M1.27111 13.689C0.560592 14.115 0.310943 15.0473 0.713499 15.7713C1.11606 16.4954 2.01838 16.737 2.72889 16.311L1.27111 13.689ZM20.1046 5.38162C20.3224 4.56843 19.8608 3.73835 19.0738 3.52759L6.24789 0.0930173C5.46083 -0.117745 4.64627 0.37062 4.42851 1.18381C4.21075 1.997 4.67226 2.82708 5.45932 3.03784L16.8601 6.09079L13.7058 17.8701C13.488 18.6833 13.9495 19.5134 14.7366 19.7241C15.5237 19.9349 16.3382 19.4465 16.556 18.6333L20.1046 5.38162ZM2.72889 16.311L19.4084 6.311L17.9506 3.689L1.27111 13.689L2.72889 16.311Z" fill="#B9FF66"/>
</svg>
