<svg width="34" height="35" viewBox="0 0 34 35" fill="none" xmlns="http://www.w3.org/2000/svg">
<circle cx="17" cy="17.8232" r="17" fill="black"/>
<path d="M9.31776 25.8232H12.8131V14.5076H9.31776V25.8232Z" fill="#B9FF66"/>
<path d="M9 10.8951C9 12.0107 9.90031 12.9139 11.0654 12.9139C12.1776 12.9139 13.0779 12.0107 13.0779 10.8951C13.0779 9.77949 12.1776 8.82324 11.0654 8.82324C9.90031 8.82324 9 9.77949 9 10.8951Z" fill="#B9FF66"/>
<path d="M22.4517 25.8232H26V19.6076C26 16.5795 25.3115 14.1889 21.7632 14.1889C20.0685 14.1889 18.9034 15.1451 18.4268 16.0482H18.3738V14.5076H15.0374V25.8232H18.5327V20.2451C18.5327 18.7576 18.7975 17.3232 20.6511 17.3232C22.4517 17.3232 22.4517 19.0232 22.4517 20.2982V25.8232Z" fill="#B9FF66"/>
</svg>
